<svg xmlns="http://www.w3.org/2000/svg" viewBox="0 0 499.96 499.96"><defs><style>.cls-1{fill:#fff;}</style></defs><g id="Layer_2" data-name="Layer 2"><g id="Layer_1-2" data-name="Layer 1"><path class="cls-1" d="M172.24,347.87,94.37,445.65c90.83,72.42,220.4,72.42,311.23,0q-38.91-48.91-77.84-97.81A125,125,0,0,1,172.24,347.87Z"/><path class="cls-1" d="M348.07,327.47l97.58,78.13c72.42-90.84,72.42-220.4,0-311.24L347.84,172.2A125,125,0,0,1,348.07,327.47Z"/><path class="cls-1" d="M327.47,151.9,405.6,54.31c-90.83-72.41-220.4-72.41-311.23,0l78.17,97.55A125,125,0,0,1,327.47,151.9Z"/><path class="cls-1" d="M152.09,172.24,54.32,94.37c-72.42,90.83-72.43,220.39,0,311.23l97.55-78.17A125.05,125.05,0,0,1,152.09,172.24Z"/></g></g></svg>