<?xml version="1.0" encoding="UTF-8"?>
<svg width="307px" height="52px" viewBox="0 0 307 52" version="1.1" xmlns="http://www.w3.org/2000/svg" xmlns:xlink="http://www.w3.org/1999/xlink">
    <!-- Generator: Sketch 63.1 (92452) - https://sketch.com -->
    <title>Group</title>
    <desc>Created with Sketch.</desc>
    <g id="app" stroke="none" stroke-width="1" fill="none" fill-rule="evenodd">
        <g id="winning" transform="translate(-34.000000, -259.000000)" fill="#39C6F4" fill-rule="nonzero">
            <g id="Group" transform="translate(34.000000, 259.000000)">
                <path d="M63.3789228,23.7206237 C61.9046785,23.176532 61.2300243,22.6065311 60.7052932,21.5442567 C59.9806646,20.0933454 59.8307415,18.8237979 60.1805622,17.2951592 C60.680306,15.2224287 61.2799986,14.3933365 63.6287947,12.7351521 C67.7766687,9.75560197 71.0749781,5.5583227 71.5497348,2.63059086 C71.8995555,0.480132958 73.4737486,-0.608050558 74.823057,0.350587301 C75.5476856,0.868769927 76.6721093,3.64104698 76.9219812,5.37695878 C77.1468659,7.08696144 76.8720068,9.96287502 76.2723142,12.2428786 C75.7975575,14.0306086 74.298326,17.3469774 73.1988895,18.9792527 C72.1244402,20.611528 69.8256185,22.7619859 68.5012973,23.3578959 C67.0270529,24.0315333 64.6032953,24.2128972 63.3789228,23.7206237 Z" id="Path" transform="translate(68.500000, 12.000000) scale(-1, 1) rotate(-180.000000) translate(-68.500000, -12.000000) "></path>
                <path d="M221.781138,23.4029711 C217.467152,21.7451497 212.523557,15.8506736 210.65805,10.1403998 C209.888528,7.85102743 209.771933,3.9038336 210.424861,2.40389995 C211.380934,0.219786032 213.386354,0.64082004 214.575615,3.27228259 C215.205224,4.69327237 216.441123,5.98268902 218.72637,7.64051042 C221.128211,9.40359033 222.970399,10.3509169 225.162371,10.9824679 C227.214429,11.5877042 228.263777,12.166626 229.149893,13.1928964 C231.761604,16.1927637 231.575053,20.66625 228.800111,22.6661616 C226.724733,24.1397806 224.322892,24.4029269 221.781138,23.4029711 Z" id="Path" transform="translate(220.500000, 12.500000) scale(-1, 1) rotate(-180.000000) translate(-220.500000, -12.500000) "></path>
                <path d="M101.701717,51.8837933 C98.1874111,51.4782276 95.202658,49.8018892 93.2529403,47.07108 C91.8327755,45.1243645 91.158799,43.0154228 91.158799,40.4468398 C91.1347284,38.6623507 91.2550813,38.1486341 91.9049873,36.634522 C93.6380697,32.6870156 96.8875993,31.0647527 103.145953,31.037715 C107.045388,31.0106773 110.150494,29.7399047 112.533482,27.2253972 C115.951506,23.6023434 116.071859,18.0055364 112.798259,14.4635957 C111.065176,12.5439179 108.802541,11.4083339 104.782753,10.353863 C98.9095288,8.81271327 95.7562816,8.29899669 91.3513637,8.1367704 C86.2965399,7.94750639 83.4562104,8.38010983 78.5939513,10.1105236 C72.3596687,12.3276162 67.6177626,13.0035591 60.4687975,12.733182 C55.8713149,12.5709557 53.3679736,12.8142951 50.1425147,13.7606151 C45.9542321,15.00435 43.5953144,16.4914243 38.6367729,21.0607982 C33.7023021,25.630172 28.6234078,29.0369241 24.4351252,30.659187 C22.9427487,31.226979 21.9077133,31.416243 19.8617132,31.5243939 C16.7566072,31.6595825 15.0475953,31.3351299 13.0015952,30.1995459 C9.58357155,28.2528304 8.18747737,24.0079091 9.82427744,20.4659684 C10.7389598,18.4651775 12.1109834,17.7081215 16.1067013,16.9510655 C19.3562308,16.3562358 20.1505603,16.0317832 20.9208192,14.9232369 C21.811431,13.6524643 21.4022309,11.9220505 19.933925,10.6783156 C18.6822543,9.62384472 17.6712896,9.35346757 14.2051247,9.13716585 C12.4239011,9.00197728 9.96870098,8.6775247 8.74110092,8.35307212 C4.79352426,7.37971438 0.91815937,5.6222629 0.00347697291,4.43260344 C-0.26129951,4.02703772 14.2773365,4 153.477555,4 C238.037535,4 307.144198,4.10815086 307,4.21630172 C306.879421,4.3514903 305.21855,4.91928231 303.292903,5.48707433 C298.984268,6.75784693 296.721632,7.67712924 289.741161,11.0568436 C281.003538,15.3017649 277.44109,16.4373489 272.867678,16.4373489 C269.762572,16.4373489 267.836925,16.0588209 264.442972,14.815086 C262.830243,14.2202563 261.024948,13.7335774 260.447254,13.7335774 C258.329042,13.7335774 256.403395,15.4639912 255.994195,17.7081215 C255.657207,19.5737239 256.884807,21.5745148 259.003019,22.6289856 C259.604784,22.8993628 261.650784,23.4130794 263.576431,23.737532 C269.473725,24.7108897 271.30309,25.4138703 273.204667,27.4146612 C274.600761,28.8746978 275.202525,30.469923 275.611725,33.7144488 C276.406055,40.2846136 273.036172,44.9080628 265.622431,47.4225703 C263.696784,48.0714755 263.046878,48.1525886 259.845489,48.1796263 C254.285183,48.2066641 250.433889,47.0440423 243.694124,43.3398754 C237.941253,40.1764627 231.851394,35.4448626 223.980311,28.0906041 C217.264617,21.7908165 214.039158,19.3303844 208.575134,16.3021603 C203.038898,13.2468985 198.128498,11.5435225 192.207133,10.5972025 C186.430192,9.70495787 182.747392,10.4079385 178.294333,13.2198608 C177.138944,13.9498791 175.574356,14.8691614 174.804097,15.2476894 C170.254756,17.4918198 164.429673,17.8973855 154.416308,16.5725375 C144.162237,15.2476894 137.326189,17.4377444 131.260401,24.0349468 C128.949624,26.5224166 127.264683,29.0098864 123.076401,36.0396923 C120.934118,39.6086707 118.55113,43.3939508 117.7568,44.4484217 C113.496306,50.0993041 108.128565,52.5867739 101.701717,51.8837933 Z" id="Path" transform="translate(153.500000, 28.000000) scale(-1, 1) rotate(-180.000000) translate(-153.500000, -28.000000) "></path>
                <path d="M192.889205,16.4726713 C191.519965,15.7085598 189.584143,13.2844822 188.710662,11.2292859 C188.120473,9.83280641 187.978827,9.20043833 188.002435,7.7249128 C188.002435,6.27573595 188.096865,5.82780855 188.498194,5.40622983 C189.159206,4.66846707 189.938257,4.95830244 190.363193,6.09129526 C190.811737,7.27698541 192.818382,9.226787 194.588951,10.1753391 C195.415216,10.6232665 196.170659,10.9657992 196.288697,10.9657992 C196.406735,10.9657992 196.808064,11.3083319 197.162178,11.7299107 C197.941228,12.6521141 198.248126,14.575567 197.775975,15.5768165 C197.091355,17.0259934 194.659774,17.4475721 192.889205,16.4726713 Z" id="Path" transform="translate(193.000000, 11.000000) scale(-1, 1) rotate(-180.000000) translate(-193.000000, -11.000000) "></path>
                <path d="M135.994053,32.4582701 C133.011832,30.8033879 131.497422,26.5441009 132.149783,21.7151003 C133.244818,13.6305937 137.461865,6.90254792 141.8886,6.0615422 C142.704052,5.92589612 142.913739,5.98015455 143.426308,6.57699732 C144.24176,7.52651991 144.195162,8.39465484 143.23992,10.3750877 C142.284677,12.3826497 141.935198,14.4715994 141.935198,18.4324651 C141.935198,20.3315102 142.098288,22.0135217 142.40117,23.5327578 C143.030232,26.5983593 143.006934,27.5478819 142.144885,29.5011855 C140.816865,32.6210454 138.370511,33.7876018 135.994053,32.4582701 Z" id="Path" transform="translate(138.000000, 19.500000) scale(-1, 1) rotate(-180.000000) translate(-138.000000, -19.500000) "></path>
                <path d="M8.70626601,15.7898134 C8.27517939,15.6631028 7.48485392,15.1055761 6.95797027,14.5733916 C6.11974628,13.7371016 6,13.4836804 6,12.4446534 C6,11.5830213 6.14369554,11.101521 6.62268068,10.4933101 C7.67644797,9.17551987 8.29912865,8.9727829 11.1730395,9.04880926 C14.2864428,9.0994935 16.1065863,8.71936169 17.5914403,7.65499262 C19.6271271,6.23583386 20.5611481,7.19883445 19.6510763,9.80907288 C18.309918,13.5597068 12.2747053,16.8795246 8.70626601,15.7898134 Z" id="Path" transform="translate(13.000000, 11.500000) scale(-1, 1) rotate(-180.000000) translate(-13.000000, -11.500000) "></path>
                <path d="M295.102068,15.4186091 C293.411133,14.7991961 291.499642,13.5603703 290.494884,12.4247799 C289.735189,11.598896 289.024506,9.92131928 289,9.01800875 C289,7.83080063 289.686176,7.70175627 291.230073,8.52764018 C293.019033,9.53418619 295.763738,9.97293702 297.675229,9.61161281 C298.998569,9.35352409 299.243632,9.37933296 300.199378,9.86970153 C302.69902,11.1343363 302.576489,14.1539743 299.954315,15.4960357 C298.581962,16.1928752 297.111584,16.1670664 295.102068,15.4186091 Z" id="Path" transform="translate(295.500000, 12.000000) scale(-1, 1) rotate(-180.000000) translate(-295.500000, -12.000000) "></path>
                <path d="M36.4861269,28.2392006 C34.1146578,26.9964627 33.3488709,24.3297542 34.5840111,21.5853746 C35.3745007,19.8248292 36.2390988,19.048118 38.5858651,18.0125031 C40.8338202,17.0286689 42.2171771,16.0966155 44.6380518,13.9218241 C45.9720032,12.7049766 46.490762,12.0059365 47.2565489,10.4007333 C48.2693638,8.25183232 48.8869339,7.75991523 50.1467768,8.09649008 C51.5301338,8.45895531 52.4441375,12.6014151 51.7771618,15.5270273 C50.5914273,20.7568827 46.6883844,26.2715322 42.8347472,28.1874199 C40.6856034,29.2489252 38.4376483,29.2748155 36.4861269,28.2392006 Z" id="Path" transform="translate(43.000000, 18.500000) scale(-1, 1) rotate(-180.000000) translate(-43.000000, -18.500000) "></path>
                <path d="M164.291631,28.3210026 C158.954608,26.6947252 153.837921,22.8484502 152.026271,19.1312449 C149.749467,14.4072964 151.487672,11.3612531 155.013045,13.9426457 C155.747498,14.4589243 156.824695,15.0784585 157.436739,15.3365977 C159.297353,16.0852016 163.655106,16.6789219 165.931909,16.4982244 C172.541984,15.9819459 171.978903,15.9819459 173.227473,16.6272941 C173.863999,16.9628751 174.867751,17.8147347 175.455313,18.4858967 C177.144554,20.473569 177.438336,22.3321717 176.38562,24.5521694 C174.525006,28.5017001 169.775545,29.9989078 164.291631,28.3210026 Z" id="Path" transform="translate(164.000000, 21.000000) scale(-1, 1) rotate(-180.000000) translate(-164.000000, -21.000000) "></path>
                <path d="M286.69594,34.2243121 C284.629846,32.9934305 282.391577,29.9293209 282.047228,27.9389591 C281.801265,26.4723767 282.489963,25.9747863 284.728232,26.0009752 C286.892711,26.0533532 290.434587,27.127101 291.516827,28.0960929 C293.681306,30.0340768 293.435343,33.1767533 291.049496,34.4862018 C289.622907,35.245682 288.220915,35.1671151 286.69594,34.2243121 Z" id="Path" transform="translate(287.500000, 30.500000) scale(-1, 1) rotate(-180.000000) translate(-287.500000, -30.500000) "></path>
                <path d="M190.969941,40.7178968 C187.911256,39.5907835 183.471228,33.9808333 183.051893,30.7019582 C182.928558,29.7541584 183.002559,29.4723801 183.520562,28.857591 C184.063232,28.1659533 184.3099,28.0891047 185.93791,28.0122561 C189.169263,27.8329426 194.965966,29.6516936 197.013312,31.4704446 C201.009336,35.0310979 198.591988,41.0509075 193.189955,40.9996751 C192.37595,40.9996751 191.389277,40.871594 190.969941,40.7178968 Z" id="Path" transform="translate(191.000000, 34.500000) scale(-1, 1) rotate(-180.000000) translate(-191.000000, -34.500000) "></path>
                <path d="M60.146014,39.6265487 C58.8188987,38.8434771 58.5977128,36.3052451 59.7282184,34.9821241 C60.0477091,34.6040896 61.07991,33.9290279 62.0138059,33.4429835 C64.0044789,32.4168897 65.8968471,30.6617292 66.5604048,29.2305984 C67.6909104,26.8003763 69.2392116,28.2045046 68.9688733,31.3907959 C68.7231112,34.1720501 66.240914,38.3034277 64.0536313,39.5185388 C62.9722781,40.1125931 61.0553337,40.166598 60.146014,39.6265487 Z" id="Path" transform="translate(64.000000, 34.000000) scale(-1, 1) rotate(-180.000000) translate(-64.000000, -34.000000) "></path>
                <path d="M88.2214121,42.4987118 C85.5006538,41.1003817 84.310322,38.1454199 85.4034838,35.454294 C86.0836734,33.8185116 86.715278,33.0797711 88.0999497,32.3146471 C92.7641068,29.7818227 100.076145,29.1750002 100.829212,31.2593036 C101.485109,33.1589219 100.246192,35.8764314 97.2096316,39.227147 C94.5131657,42.1821088 93.1284941,43 90.772123,43 C89.7518386,43 88.8530167,42.8153149 88.2214121,42.4987118 Z" id="Path" transform="translate(93.000000, 36.500000) scale(-1, 1) rotate(-180.000000) translate(-93.000000, -36.500000) "></path>
                <path d="M298.718322,41.6763409 C296.536259,40.9655601 294.863343,39.4678435 295.008814,38.3762873 C295.057304,37.9447419 295.22702,37.8432018 295.93013,37.9193568 C298.136439,38.097052 299.760864,37.9447419 301.142838,37.4370413 C302.064153,37.0816509 302.839998,36.9293408 303.252166,37.0308809 C305.676681,37.6908916 305.555455,40.5593997 303.03396,41.6763409 C302.064153,42.1078864 300.027561,42.1078864 298.718322,41.6763409 Z" id="Path" transform="translate(300.000000, 39.500000) scale(-1, 1) rotate(-180.000000) translate(-300.000000, -39.500000) "></path>
                <path d="M4.51975174,43.8511662 C3.04926229,43.540503 2.46106652,41.3180662 3.59221224,40.2904879 C4.88171837,39.1195265 8.47876179,38.5459944 8.93122008,39.4301897 C9.22531797,40.027619 8.54663053,41.5331407 7.46073063,42.6324105 C6.66892862,43.4210171 5.56040581,44.0662407 5.15319335,43.9945492 C5.06270169,43.970652 4.7686038,43.8989605 4.51975174,43.8511662 Z" id="Path" transform="translate(6.000000, 41.500000) scale(-1, 1) rotate(-180.000000) translate(-6.000000, -41.500000) "></path>
            </g>
        </g>
    </g>
</svg>